<?xml version="1.0" encoding="utf-8"?>
<!-- Generator: Adobe Illustrator 21.0.0, SVG Export Plug-In . SVG Version: 6.00 Build 0)  -->
<svg version="1.1" id="Layer_1" xmlns="http://www.w3.org/2000/svg" xmlns:xlink="http://www.w3.org/1999/xlink" x="0px" y="0px"
	 viewBox="0 0 500 500" style="enable-background:new 0 0 500 500;" xml:space="preserve">
<style type="text/css">
	.st-lp-10{fill:#141232;}
	.st-lp-11{fill:#FEFDED;}
	.st-lp-12{fill:#E6E6E5;}
	.st-lp-13{fill:#F27BAA;}
</style>
<g>
	<g>
		<g>
			<path class="st-lp-10" d="M249.9,0C112.2,0.1,0.1,112.3,0.2,250c0.1,137.8,112.3,249.8,250,249.8C388,499.7,500.1,387.5,500,249.7
				C499.9,112,387.7-0.1,249.9,0z M250.2,463.6C132.4,463.6,36.5,367.8,36.4,250S132.2,36.3,250,36.2
				c117.8-0.1,213.7,95.7,213.8,213.5C463.8,367.6,368,463.5,250.2,463.6z"/>
			<path class="st-lp-11" d="M250,36.2C132.2,36.3,36.4,132.2,36.4,250s96,213.6,213.8,213.5c117.8-0.1,213.6-96,213.5-213.8
				C463.7,132,367.8,36.2,250,36.2z"/>
		</g>
		<g>
			<g>
				<path class="st-lp-12" d="M432.9,227.3c-8.7,4-27-16.8-49.1-44.7c-21.9-27.9-38.1-53.3-28.1-59.6c9.8-6.3,41.2,11.2,61.8,41.5
					C438.2,194.6,441.4,223.3,432.9,227.3z"/>
			</g>
			<g>
				<path class="st-lp-12" d="M334.1,127.3c-4.8,4.1-19.8-5.7-38.1-19.6c-18.2-14-32.8-27.4-28.4-32.7c4.3-5.4,26.5,0.5,45,15.8
					C331.3,106,338.8,123.3,334.1,127.3z"/>
			</g>
			<g>
				<path class="st-lp-12" d="M366.9,102.8c-2.3,1.9-9.5-2.8-18.1-9.6c-8.6-6.8-15.6-13.3-13.4-15.9c2.1-2.5,12.7,0.4,21.5,7.9
					C365.7,92.5,369.2,100.9,366.9,102.8z"/>
			</g>
		</g>
		<g>
			<path class="st-lp-12" d="M65.4,228.3c0-63.3,27.7-120.3,71.6-159.5C76.6,106.6,36.4,173.7,36.4,250c0.1,117.8,96,213.6,213.8,213.5
				c54.5,0,104.2-20.6,142-54.3c-32.8,20.6-71.5,32.5-113,32.5C161.4,441.9,65.5,346.1,65.4,228.3z"/>
		</g>
	</g>
	<circle class="st-lp-13" cx="353.6" cy="263" r="34.4"/>
	<circle class="st-lp-13" cx="157.9" cy="263" r="34.4"/>
	<g>
		<g>
			<path class="st-lp-10" d="M187.7,278.4c10,0,18.1,8.1,18.1,18.1c0,26.8,21.8,48.7,48.7,48.7s48.7-21.8,48.7-48.7
				c0-10,8.1-18.1,18.1-18.1s18.1,8.1,18.1,18.1c0,46.8-38.1,84.9-84.9,84.9s-84.9-38.1-84.9-84.9
				C169.6,286.5,177.7,278.4,187.7,278.4z"/>
		</g>
		<g>
			<path class="st-lp-11" d="M160.8,206.9c0,0,6.7,16.9,27,16.9s27-16.9,27-16.9"/>
			<path class="st-lp-10" d="M187.7,242c-25.8,0-39.7-17.8-43.8-28.4c-3.7-9.3,0.9-19.8,10.2-23.5c9.2-3.6,19.5,0.8,23.3,9.8
				c0.9,1.8,3.6,5.8,10.3,5.8c7.6,0,10.1-5.4,10.1-5.4c3.7-9.3,14.2-13.9,23.5-10.2c9.3,3.7,13.9,14.2,10.2,23.5
				C227.4,224.1,213.5,242,187.7,242z"/>
		</g>
		<g>
			<path class="st-lp-11" d="M294.4,206.9c0,0,6.7,16.9,27,16.9s27-16.9,27-16.9"/>
			<path class="st-lp-10" d="M321.3,242c-25.8,0-39.7-17.8-43.8-28.4c-3.7-9.3,0.9-19.8,10.2-23.5c9.2-3.6,19.5,0.8,23.3,9.8
				c0.9,1.8,3.6,5.8,10.3,5.8c7.6,0,10.1-5.4,10.1-5.4c3.7-9.3,14.2-13.9,23.5-10.2c9.3,3.7,13.9,14.2,10.2,23.5
				C361,224.1,347.1,242,321.3,242z"/>
		</g>
	</g>
</g>
</svg>
